<?xml version="1.0" encoding="UTF-8" standalone="no"?>
<!-- Created with Inkscape (http://www.inkscape.org/) -->

<svg
   xmlns:dc="http://purl.org/dc/elements/1.1/"
   xmlns:cc="http://creativecommons.org/ns#"
   xmlns:rdf="http://www.w3.org/1999/02/22-rdf-syntax-ns#"
   xmlns:svg="http://www.w3.org/2000/svg"
   xmlns="http://www.w3.org/2000/svg"
   xmlns:sodipodi="http://sodipodi.sourceforge.net/DTD/sodipodi-0.dtd"
   xmlns:inkscape="http://www.inkscape.org/namespaces/inkscape"
   width="131mm"
   height="83mm"
   viewBox="0 0 131 83"
   version="1.1"
   id="svg4837"
   inkscape:version="0.92.4 (5da689c313, 2019-01-14)"
   sodipodi:docname="skilogo.svg">
  <defs
     id="defs4831">
    <clipPath
       clipPathUnits="userSpaceOnUse"
       id="clipPath722">
      <path
         d="M 0,500 H 500 V 0 H 0 Z"
         id="path720"
         inkscape:connector-curvature="0" />
    </clipPath>
  </defs>
  <sodipodi:namedview
     id="base"
     pagecolor="#ffffff"
     bordercolor="#000000"
     borderopacity="1"
     inkscape:pageopacity="0.0"
     inkscape:pageshadow="2"
     inkscape:zoom="1.4"
     inkscape:cx="228.54962"
     inkscape:cy="191.421"
     inkscape:document-units="mm"
     inkscape:current-layer="g718"
     showgrid="false"
     inkscape:window-width="1920"
     inkscape:window-height="1057"
     inkscape:window-x="-8"
     inkscape:window-y="-8"
     inkscape:window-maximized="1"
     inkscape:pagecheckerboard="false"
     borderlayer="false"
     inkscape:showpageshadow="false"
     showguides="true" />
  <metadata
     id="metadata4834">
    <rdf:RDF>
      <cc:Work
         rdf:about="">
        <dc:format>image/svg+xml</dc:format>
        <dc:type
           rdf:resource="http://purl.org/dc/dcmitype/StillImage" />
        <dc:title></dc:title>
      </cc:Work>
    </rdf:RDF>
  </metadata>
  <g
     inkscape:label="Layer 1"
     inkscape:groupmode="layer"
     id="layer1"
     transform="translate(0,-214)">
    <g
       id="g716"
       transform="matrix(0.35277777,0,0,-0.35277777,40.457348,234.8561)">
      <g
         id="g718"
         clip-path="url(#clipPath722)"
         transform="matrix(2.4021158,0,0,2.4021158,-496.37868,-365.54346)">
        <g
           id="g732"
           transform="translate(281.47942,137.70258)">
          <path
             d="M 0,0 C 0.252,-1.012 2.679,-10.498 2.679,-10.498 L -4.353,7.209 -10.714,-2.443 -3.264,14.798 7.031,-9.233 C 7.031,-9.233 -0.251,1.012 0,0 m -13.393,8.854 -3.012,4.173 2.092,-4.679 1.506,-6.577 -1.339,-4.214 -3.264,10.917 -0.251,-3.162 -3.432,7.968 2.93,-1.77 -2.261,4.553 -1.088,8.475 3.181,-4.681 -0.921,4.681 8.873,-16.949 4.018,2.909 -5.19,-8.475 z m -10.713,0.885 -3.097,5.945 -3.6,5.312 0.753,-6.198 7.282,-11.889 -5.691,5.565 -3.014,6.324 -3.096,4.174 -2.93,9.992 1.59,-9.992 -1.088,-3.288 2.177,-6.957 2.426,-1.391 6.111,-12.648 -5.692,9.758 -3.431,0.992 -5.274,14.166 2.009,-9.992 -1.674,-7.462 0.334,6.198 -2.678,10.624 1.423,6.324 -2.642,-5.692 -2.213,-20.743 0.67,19.479 c 0,0 -7.773,-20.772 -8.833,-24.188 -0.068,-0.36 -0.112,-0.543 -0.124,-0.476 -0.006,0.036 0.041,0.21 0.124,0.476 0.452,2.393 1.969,12.805 1.969,12.805 l 3.683,11.003 -11.216,-16.948 4.352,7.589 1.758,5.691 -2.929,-2.15 11.299,15.801 c 0,0 -1.004,-4.544 -1.004,-5.05 0,-0.506 6.361,10.119 6.361,10.119 l 1.256,1.897 5.943,-10.371 -1.004,5.059 6.194,-7.336 4.854,-8.348 -2.426,3.668 -3.684,3.541 z m -37.333,2.53 -0.753,-8.475 0.419,-6.237 -4.437,-7.17 2.93,8.981 -1.34,1.264 1.005,8.095 -1.925,-8.095 -4.688,-8.853 2.26,6.576 -6.194,-6.324 6.194,9.36 2.176,5.692 0.641,4.838 -1.394,-2.056 -0.502,-3.921 -1.758,1.771 2.26,4.427 -4.938,-2.277 10.463,11.637 -0.335,-4.427 2.427,4.427 -0.92,-5.818 V 6.957 Z m -14.397,-18.607 -3.013,6.717 -0.921,-5.944 -3.013,-8.854 1.925,14.419 -2.344,-7.589 -1.506,-7.336 1.506,10.625 -2.595,-5.313 v 3.275 l -6.658,-7.575 15.95,28.199 0.669,-1.006 -1.59,-4.047 v -6.83 z m 72.539,26.689 -6.351,-11.26 -10.974,20.83 c 0,0 -4.099,-8.726 -3.912,-9.57 0.186,-0.845 -14.345,17.452 -14.345,17.452 l -15.275,-18.86 -5.031,6.193 -13.599,-13.793 -4.04,7.037 -19.916,-38.02 c 2.323,0.705 4.737,0.929 7.158,1.133 l 3.013,5.641 -1.274,-5.485 c 0.816,0.078 1.631,0.163 2.44,0.284 1.925,0.287 3.842,0.607 5.761,0.918 l 4.25,5.972 -3.101,-5.789 c 2.01,0.32 4.022,0.625 6.05,0.86 0.054,0.006 0.109,0.013 0.163,0.019 l 4.526,8.288 -3.945,-8.217 c 3.532,0.421 7.041,0.905 10.551,1.321 l 2.15,4.925 -1.753,-4.878 c 2.055,0.24 4.112,0.445 6.173,0.598 l 4.303,8.081 -2.589,-7.964 c 1.979,0.113 3.964,0.172 5.96,0.137 0.907,-0.017 1.72,-0.175 2.448,-0.439 l 0.674,6.37 0.812,-6.45 c 0.133,-0.019 0.268,-0.054 0.402,-0.081 3.396,0.69 6.627,0.269 10.084,-0.118 1.883,-0.21 3.716,-0.399 5.499,-0.754 l -2.094,5.803 3.726,-6.035 c 3.185,0.105 6.378,0.388 9.556,0.357 l 3.931,8.188 -3.055,-8.206 c 1.483,-0.034 2.79,-0.959 4.258,-1.096 l 1.964,4.236 -0.48,-4.474 c 0.51,-0.061 1.006,-0.102 1.514,-0.178 l 3.064,11.407 -1.431,-11.288 c 1.888,-0.34 3.915,-0.267 5.765,-0.832 l -0.98,5.928 1.91,-6.2 c 2.358,-0.696 4.72,-1.308 7.06,-1.978 l -1.923,6.77 5.301,-7.815 c 0.027,-0.009 0.052,-0.019 0.08,-0.028 0.593,-0.081 1.115,-0.203 1.647,-0.385 z"
             style="fill:#606060;fill-opacity:1;fill-rule:nonzero;stroke:none"
             id="path734"
             inkscape:connector-curvature="0" />
        </g>
        <g
           id="g736"
           transform="translate(315.01852,106.63038)">
          <path
             d="m 0,0 c -6.084,1.768 -12.214,3.321 -18.378,4.66 -0.218,-0.507 -0.402,-1.024 -0.549,-1.552 4.961,-1.073 9.899,-2.286 14.808,-3.638 -3.493,-2.325 -6.902,-4.716 -10.226,-7.169 1.825,-3.705 3.551,-7.428 5.176,-11.162 -9.882,2.721 -19.887,4.836 -29.961,6.342 -0.539,-0.328 -1.08,-0.653 -1.641,-0.948 -0.231,-0.121 -0.474,-0.243 -0.722,-0.358 11.879,-1.673 23.669,-4.196 35.277,-7.569 -1.829,4.398 -3.794,8.781 -5.897,13.142 C -8.191,-5.413 -4.153,-2.66 0,0"
             style="fill:#606060;fill-opacity:1;fill-rule:nonzero;stroke:none"
             id="path738"
             inkscape:connector-curvature="0" />
        </g>
        <g
           id="g740"
           transform="translate(199.41642,93.932083)">
          <path
             d="m 0,0 c -9.675,-1.493 -19.285,-3.548 -28.781,-6.164 1.626,3.735 3.352,7.458 5.177,11.163 -3.324,2.453 -6.733,4.844 -10.227,7.168 5.001,1.378 10.032,2.611 15.086,3.699 -0.09,0.537 -0.173,1.076 -0.244,1.617 -6.361,-1.366 -12.684,-2.962 -18.959,-4.785 4.152,-2.66 8.191,-5.413 12.112,-8.252 -2.103,-4.361 -4.068,-8.744 -5.897,-13.141 11.326,3.29 22.824,5.771 34.41,7.445 -0.814,0.328 -1.623,0.671 -2.43,1.022 C 0.124,-0.173 0.05,-0.091 0,0"
             style="fill:#606060;fill-opacity:1;fill-rule:nonzero;stroke:none"
             id="path742"
             inkscape:connector-curvature="0" />
        </g>
        <g
           id="g744"
           transform="translate(282.84372,98.166483)">
          <path
             d="m 0,0 c -10.172,-3.752 -19.827,-8.109 -28.918,-12.977 -4.855,-2.595 -10.058,-4.046 -15.269,-4.239 -5.975,-0.209 -11.903,1.201 -17.487,4.146 -9.254,4.886 -19.087,9.244 -29.449,12.973 -0.031,-0.011 -0.055,-0.029 -0.09,-0.037 -0.785,-0.162 -1.639,-0.532 -2.499,-0.828 11.016,-3.842 21.444,-8.394 31.223,-13.542 5.511,-2.897 11.33,-4.38 17.212,-4.365 0.383,0.001 0.767,0.009 1.151,0.022 5.47,0.201 10.928,1.721 16.031,4.441 9.815,5.239 20.291,9.881 31.366,13.802 C 2.196,-0.339 1.092,-0.179 0,0"
             style="fill:#606060;fill-opacity:1;fill-rule:nonzero;stroke:none"
             id="path746"
             inkscape:connector-curvature="0" />
        </g>
        <g
           id="g748"
           transform="translate(184.69182,97.762183)">
          <path
             d="m 0,0 c 35.361,7.414 71.881,7.404 107.24,-0.029 1.365,6.189 2.734,12.378 4.108,18.566 C 73.418,26.54 34.236,26.578 -3.706,18.65 -2.475,12.432 -1.24,6.216 0,0 M 108.663,-2.003 C 72.383,5.888 34.827,5.896 -1.455,-1.98 -2.959,5.293 -4.458,12.566 -5.95,19.842 c 39.405,8.519 80.188,8.477 119.578,-0.125 -1.661,-7.239 -3.316,-14.479 -4.965,-21.72"
             style="fill:#606060;fill-opacity:1;fill-rule:nonzero;stroke:none"
             id="path750"
             inkscape:connector-curvature="0" />
        </g>
        <g
           id="g752"
           transform="translate(190.81002,111.66408)">
          <path
             d="M 0,0 C -0.64,-0.113 -1.025,-0.387 -0.954,-0.785 -0.697,-2.209 4.508,-0.48 5.006,-3.637 5.286,-5.42 3.644,-6.612 1.437,-7 -0.219,-7.289 -2.041,-7.078 -3.4,-6.454 c 0.222,0.657 0.446,1.312 0.672,1.967 1.177,-0.573 2.829,-0.836 3.869,-0.655 0.77,0.135 1.213,0.466 1.135,0.926 -0.255,1.496 -5.382,-0.353 -5.972,2.704 -0.313,1.622 1.111,2.968 3.59,3.403 C 1.402,2.156 2.995,2.01 4.155,1.594 3.915,0.938 3.678,0.282 3.442,-0.375 2.283,-0.026 0.844,0.149 0,0"
             style="fill:#606060;fill-opacity:1;fill-rule:nonzero;stroke:none"
             id="path754"
             inkscape:connector-curvature="0" />
        </g>
        <g
           id="g756"
           transform="translate(206.87402,106.88918)">
          <path
             d="M 0,0 C -0.999,1.03 -2.009,2.054 -3.029,3.072 -3.408,2.6 -3.785,2.126 -4.16,1.651 c 0.095,-0.713 0.19,-1.425 0.285,-2.139 -0.868,-0.116 -1.736,-0.236 -2.604,-0.361 -0.418,2.919 -0.837,5.838 -1.256,8.756 0.896,0.129 1.793,0.253 2.69,0.373 0.164,-1.226 0.327,-2.451 0.491,-3.677 1.109,1.396 2.235,2.784 3.38,4.166 C -0.133,8.893 0.908,9.011 1.95,9.123 0.803,7.772 -0.327,6.416 -1.439,5.051 0.106,3.498 1.627,1.932 3.124,0.353 2.082,0.241 1.041,0.124 0,0"
             style="fill:#606060;fill-opacity:1;fill-rule:nonzero;stroke:none"
             id="path758"
             inkscape:connector-curvature="0" />
        </g>
        <g
           id="g760"
           transform="translate(215.81782,116.67378)">
          <path
             d="m 0,0 0.721,-8.817 c -0.872,-0.071 -1.744,-0.146 -2.616,-0.226 -0.269,2.936 -0.538,5.872 -0.808,8.809 C -1.802,-0.152 -0.901,-0.074 0,0"
             style="fill:#606060;fill-opacity:1;fill-rule:nonzero;stroke:none"
             id="path762"
             inkscape:connector-curvature="0" />
        </g>
        <g
           id="g764"
           transform="translate(232.02192,115.73878)">
          <path
             d="m 0,0 c -0.647,-0.015 -1.068,-0.228 -1.057,-0.632 0.038,-1.448 5.425,-0.524 5.441,-3.72 0.009,-1.805 -1.79,-2.735 -4.021,-2.785 -1.675,-0.036 -3.438,0.45 -4.681,1.272 0.317,0.614 0.636,1.228 0.957,1.842 1.072,-0.745 2.659,-1.254 3.712,-1.232 0.778,0.017 1.264,0.276 1.257,0.743 -0.027,1.517 -5.354,0.465 -5.475,3.575 -0.064,1.651 1.54,2.767 4.046,2.822 C 1.706,1.919 3.252,1.534 4.333,0.948 3.998,0.335 3.665,-0.277 3.334,-0.891 2.244,-0.371 0.854,0.02 0,0"
             style="fill:#606060;fill-opacity:1;fill-rule:nonzero;stroke:none"
             id="path766"
             inkscape:connector-curvature="0" />
        </g>
        <g
           id="g768"
           transform="translate(246.76072,114.27588)">
          <path
             d="M 0,0 C 0.028,0.87 -0.589,1.358 -1.679,1.386 -2.247,1.4 -2.815,1.412 -3.385,1.423 -3.401,0.519 -3.419,-0.386 -3.436,-1.291 -2.872,-1.301 -2.31,-1.313 -1.746,-1.328 -0.669,-1.355 -0.029,-0.896 0,0 M 2.549,-0.017 C 2.46,-2.099 0.922,-3.239 -1.662,-3.172 c -0.603,0.015 -1.205,0.028 -1.808,0.04 -0.015,-0.816 -0.031,-1.632 -0.046,-2.448 -0.875,0.017 -1.749,0.028 -2.623,0.036 0.027,2.949 0.053,5.898 0.079,8.846 1.521,-0.014 3.041,-0.04 4.562,-0.079 2.653,-0.069 4.131,-1.275 4.047,-3.24"
             style="fill:#606060;fill-opacity:1;fill-rule:nonzero;stroke:none"
             id="path770"
             inkscape:connector-curvature="0" />
        </g>
        <g
           id="g772"
           transform="translate(255.55562,112.60598)">
          <path
             d="M 0,0 C -0.089,-1.436 1.123,-2.625 2.616,-2.737 4.127,-2.85 5.43,-1.846 5.554,-0.413 5.678,1.02 4.537,2.208 2.993,2.322 1.451,2.438 0.09,1.436 0,0 M 8.285,-0.646 C 8.031,-3.222 5.536,-4.928 2.442,-4.697 c -3.092,0.23 -5.307,2.286 -5.177,4.871 0.13,2.57 2.631,4.353 5.846,4.114 3.216,-0.24 5.425,-2.386 5.174,-4.934"
             style="fill:#606060;fill-opacity:1;fill-rule:nonzero;stroke:none"
             id="path774"
             inkscape:connector-curvature="0" />
        </g>
        <g
           id="g776"
           transform="translate(270.69822,111.08008)">
          <path
             d="M 0,0 C 0.643,-0.077 1.284,-0.157 1.926,-0.239 2.996,-0.376 3.683,0.014 3.803,0.902 3.92,1.765 3.354,2.313 2.271,2.453 1.623,2.536 0.975,2.616 0.326,2.694 0.218,1.796 0.108,0.898 0,0 m 2.877,-4.691 c -0.376,0.874 -0.757,1.747 -1.142,2.619 -0.018,0.002 -0.038,0.005 -0.057,0.007 -0.633,0.081 -1.266,0.16 -1.899,0.236 -0.097,-0.809 -0.195,-1.62 -0.293,-2.43 -0.869,0.105 -1.739,0.206 -2.609,0.302 0.325,2.931 0.649,5.861 0.975,8.792 C -0.602,4.664 0.945,4.479 2.49,4.281 5.232,3.929 6.625,2.57 6.341,0.625 6.149,-0.699 5.374,-1.581 4.138,-1.945 c 0.569,-1.051 1.13,-2.102 1.684,-3.156 -0.981,0.143 -1.963,0.279 -2.945,0.41"
             style="fill:#606060;fill-opacity:1;fill-rule:nonzero;stroke:none"
             id="path778"
             inkscape:connector-curvature="0" />
        </g>
        <g
           id="g780"
           transform="translate(290.03702,112.67138)">
          <path
             d="m 0,0 c -0.12,-0.624 -0.239,-1.248 -0.358,-1.871 -1.016,0.194 -2.032,0.383 -3.048,0.566 -0.41,-2.277 -0.82,-4.554 -1.23,-6.831 -0.863,0.156 -1.727,0.307 -2.593,0.453 0.387,2.282 0.775,4.562 1.162,6.843 -1.009,0.171 -2.019,0.337 -3.029,0.496 0.1,0.628 0.199,1.255 0.298,1.882 C -5.859,1.073 -2.927,0.561 0,0"
             style="fill:#606060;fill-opacity:1;fill-rule:nonzero;stroke:none"
             id="path782"
             inkscape:connector-curvature="0" />
        </g>
        <g
           id="g784"
           transform="matrix(0.29763846,0,0,0.29763846,234.71172,98.752679)">
          <path
             d="m 0,0 c -0.499,0.662 -1.221,1.471 -2.107,1.952 -1.677,0.929 -3.844,0.825 -4.386,-0.705 -0.24,-0.705 -0.06,-1.428 0.516,-1.892 0.525,-0.43 1.222,-0.516 1.875,-0.447 0.481,0.06 1.281,0.335 1.703,-0.026 0.292,-0.258 -0.232,-1.187 -0.043,-1.952 -0.06,-0.052 -0.129,-0.095 -0.189,-0.129 -0.585,-0.352 -0.903,-0.911 -1.428,-1.307 -0.49,-0.369 -1.006,-0.395 -1.496,-0.223 -0.963,0.326 -1.858,1.375 -2.434,2.021 -1.332,1.487 -2.313,3.362 -2.296,5.399 0.009,0.328 0.035,0.645 0.086,0.972 0.791,5.099 7.49,4.489 9.709,2.202 C 1.221,4.093 0.903,1.84 0,0"
             style="fill:#606060;fill-opacity:1;fill-rule:nonzero;stroke:none"
             id="path786"
             inkscape:connector-curvature="0" />
        </g>
        <g
           id="g788"
           transform="matrix(0.29763846,0,0,0.29763846,232.22394,86.598052)">
          <path
             d="m 0,0 -3.328,11.428 2.012,-10.052 -6.2,0.92 -1.152,10.852 0.464,1.032 c 0,0 -6.604,2.812 -7.928,4.308 -1.315,1.488 -2.003,3.216 -2.003,3.216 l 0.283,3.208 -0.748,-3.5 -0.971,0.576 c 0,0 0.343,5.108 0.748,6.2 0.395,1.092 2.236,4.359 3.035,4.652 0.628,0.223 3.887,1.255 5.28,1.694 l -8.436,-2.614 -2.408,-6.837 -3.903,0.061 3.843,11.135 9.476,5.108 2.821,0.602 c 1.702,-2.33 4.36,-3.551 4.6,-3.655 -1.788,1.119 -2.579,2.761 -2.923,4.017 l 4.729,1.014 c 0,0 0.069,-2.322 2.253,-5.073 v -1.548 l 1.316,0.344 c 0,0 0.628,-1.264 2.726,-1.952 0,0 0.722,-1.436 -0.43,-4.025 -1.144,-2.579 -2.03,-4.686 -2.03,-4.686 l -4.05,0.559 1.72,4.643 -3.276,-6.655 c 0,0 3.964,-8.9 4.944,-10.852 0.972,-1.952 5.332,-14.576 5.332,-14.576 z"
             style="fill:#606060;fill-opacity:1;fill-rule:nonzero;stroke:none"
             id="path790"
             inkscape:connector-curvature="0" />
        </g>
        <g
           id="g792"
           transform="matrix(0.29763846,0,0,0.29763846,232.55792,94.463799)">
          <path
             d="m 0,0 4.892,-5.224 -2.306,-2.452 -7.317,6.231 0.683,1.999 z"
             style="fill:#606060;fill-opacity:1;fill-rule:nonzero;stroke:none"
             id="path794"
             inkscape:connector-curvature="0" />
        </g>
        <g
           id="g796"
           transform="matrix(0.29763846,0,0,0.29763846,224.86525,94.079399)">
          <path
             d="m 0,0 c 0,0 0.178,-0.579 0,-0.986 -0.177,-0.408 -0.229,-1.75 0.255,-2.695 0.484,-0.945 3.334,-1.607 4.225,-0.283 0.891,1.323 -1.197,3.415 -1.247,3.665 l -0.049,0.25 -1.3,0.565 z"
             style="fill:#606060;fill-opacity:1;fill-rule:nonzero;stroke:none"
             id="path798"
             inkscape:connector-curvature="0" />
        </g>
        <g
           id="g800"
           transform="matrix(0.29763846,0,0,0.29763846,233.92447,92.813719)">
          <path
             d="m 0,0 c 0,0 0.146,-0.312 1.03,-0.504 0.884,-0.191 2.103,-1.004 2.39,-2.199 0.287,-1.195 -1.059,-2.483 -2.613,-2.172 -1.554,0.311 -1.689,2.029 -2.024,2.339 -0.335,0.311 -0.625,0.577 -0.625,0.577 l 0.506,1.264 z"
             style="fill:#606060;fill-opacity:1;fill-rule:nonzero;stroke:none"
             id="path802"
             inkscape:connector-curvature="0" />
        </g>
        <g
           id="g804"
           transform="matrix(0.29763846,0,0,0.29763846,225.54598,92.855859)">
          <path
             d="m 0,0 c -0.067,0 -0.135,0.016 -0.199,0.049 l -33.167,17.356 c -0.21,0.11 -0.291,0.37 -0.181,0.581 0.11,0.21 0.368,0.29 0.58,0.182 L 0.2,0.811 C 0.41,0.701 0.491,0.441 0.381,0.231 0.304,0.084 0.155,0 0,0"
             style="fill:#606060;fill-opacity:1;fill-rule:nonzero;stroke:none"
             id="path806"
             inkscape:connector-curvature="0" />
        </g>
        <g
           id="g808"
           transform="matrix(0.29763846,0,0,0.29763846,216.16296,97.337729)">
          <path
             d="m 0,0 c -0.081,0 -0.162,0.023 -0.235,0.071 -0.199,0.13 -0.254,0.396 -0.124,0.595 l 1.344,2.05 C 1.115,2.914 1.383,2.969 1.58,2.839 1.779,2.709 1.834,2.443 1.704,2.244 L 0.36,0.194 C 0.278,0.068 0.141,0 0,0"
             style="fill:#606060;fill-opacity:1;fill-rule:nonzero;stroke:none"
             id="path810"
             inkscape:connector-curvature="0" />
        </g>
        <g
           id="g812"
           transform="matrix(0.29763846,0,0,0.29763846,223.67991,90.674289)">
          <path
             d="m 0,0 c -0.218,0 -0.405,0.165 -0.428,0.386 -0.024,0.237 0.148,0.447 0.385,0.471 L 37.195,4.676 C 37.427,4.705 37.643,4.529 37.667,4.292 37.69,4.056 37.519,3.845 37.283,3.821 L 0.044,0.003 C 0.029,0.001 0.015,0 0,0"
             style="fill:#606060;fill-opacity:1;fill-rule:nonzero;stroke:none"
             id="path814"
             inkscape:connector-curvature="0" />
        </g>
        <g
           id="g816"
           transform="matrix(0.29763846,0,0,0.29763846,224.46514,90.373439)">
          <path
             d="m 0,0 c -0.237,0 -0.429,0.191 -0.43,0.428 l -0.01,2.451 c -0.001,0.239 0.229,0.427 0.43,0.432 0.237,0 0.429,-0.191 0.43,-0.428 L 0.43,0.432 C 0.431,0.194 0.265,-0.027 0,0"
             style="fill:#606060;fill-opacity:1;fill-rule:nonzero;stroke:none"
             id="path818"
             inkscape:connector-curvature="0" />
        </g>
        <g
           id="g820"
           transform="matrix(0.29763846,0,0,0.29763846,227.36464,88.903429)">
          <path
             d="m 0,0 c 0.182,-0.237 0.411,-0.455 0.622,-0.632 2.68,-2.245 5.724,-3.99 8.594,-5.97 4.268,-2.945 8.545,-5.878 12.838,-8.788 3.866,-2.621 7.739,-5.237 11.673,-7.756 1.063,-0.68 2.129,-1.359 3.22,-1.995 0.486,-0.284 1.058,-0.71 1.623,-0.82 2.313,-0.451 4.683,1.692 4.627,2.765 -0.057,1.072 -1.016,0.96 -2.088,1.354 -0.608,0.225 -1.189,0.655 -1.745,0.978 -1.342,0.781 -2.676,1.575 -4.01,2.369 -4.002,2.381 -7.993,4.78 -11.983,7.182 -4.185,2.519 -8.367,5.044 -12.548,7.57 -2.014,1.227 -4.071,2.392 -6.021,3.72 C 3.867,0.615 0.801,2.753 -0.221,1.214 -0.382,0.971 -0.358,0.643 -0.236,0.379 -0.176,0.25 -0.094,0.123 0,0"
             style="fill:#606060;fill-opacity:1;fill-rule:nonzero;stroke:none"
             id="path822"
             inkscape:connector-curvature="0" />
        </g>
        <g
           id="g824"
           transform="matrix(0.29763846,0,0,0.29763846,228.32077,89.129279)">
          <path
             d="m 0,0 c 0.198,-0.224 0.441,-0.426 0.664,-0.588 2.827,-2.057 5.983,-3.588 8.983,-5.368 4.46,-2.645 8.927,-5.278 13.41,-7.887 4.037,-2.348 8.08,-4.693 12.177,-6.937 1.107,-0.606 2.217,-1.21 3.349,-1.77 0.504,-0.25 1.105,-0.636 1.675,-0.707 2.339,-0.292 4.557,2.01 4.427,3.075 -0.13,1.067 -1.079,0.888 -2.176,1.208 -0.622,0.183 -1.231,0.572 -1.808,0.857 -1.392,0.687 -2.778,1.388 -4.163,2.088 -4.155,2.101 -8.301,4.221 -12.446,6.344 -4.348,2.227 -8.694,4.458 -13.038,6.693 C 8.96,-1.907 6.829,-0.886 4.793,0.306 3.815,0.878 0.61,2.802 -0.304,1.195 -0.447,0.943 -0.401,0.617 -0.261,0.362 -0.192,0.237 -0.103,0.116 0,0"
             style="fill:#606060;fill-opacity:1;fill-rule:nonzero;stroke:none"
             id="path826"
             inkscape:connector-curvature="0" />
        </g>
      </g>
    </g>
  </g>
</svg>
